<?xml version="1.0" ?><!DOCTYPE svg  PUBLIC '-//W3C//DTD SVG 1.1//EN'  'http://www.w3.org/Graphics/SVG/1.1/DTD/svg11.dtd'><svg enable-background="new 0 0 128 128" height="128px" id="Layer_1" version="1.1" viewBox="0 0 128 128" width="128px" xml:space="preserve" xmlns="http://www.w3.org/2000/svg" xmlns:xlink="http://www.w3.org/1999/xlink"><g><g><path d="M63.999,114.135c-27.642,0-50.129-22.486-50.129-50.128c0-27.642,22.487-50.129,50.129-50.129    s50.129,22.487,50.129,50.129C114.128,91.648,91.641,114.135,63.999,114.135z M63.999,17.877    c-25.436,0-46.129,20.693-46.129,46.129c0,25.435,20.693,46.128,46.129,46.128s46.129-20.693,46.129-46.128    C110.128,38.571,89.435,17.877,63.999,17.877z"/></g></g><g><path d="M55.739,89.902c-4.328,0-7.283-4.266-9.238-7.088c-4.953-7.158-7.761-19.029-3.206-26.928   c2.502-4.352,7.055-7.101,11.882-7.173l0.147-0.001c2.141,0,4.108,0.782,5.69,1.41c0.867,0.345,1.852,0.735,2.309,0.735   c0.374,0,1.394-0.402,2.212-0.725c1.997-0.788,4.571-1.79,7.349-1.527c2.093,0.095,7.167,0.853,10.509,5.74l1.15,1.684   l-1.705,1.118c-1.105,0.689-4.454,3.131-4.408,7.678c0.053,5.784,4.802,7.891,5.344,8.112l0.092,0.041l1.632,0.75l-0.57,1.703   c-0.375,1.199-1.472,4.301-3.652,7.49c-2.082,3.045-4.673,6.832-9.143,6.912l-0.19,0.002c-1.94,0-3.272-0.576-4.448-1.086   c-1.078-0.465-2.009-0.869-3.521-0.869c-1.609,0-2.596,0.422-3.736,0.908c-1.14,0.486-2.432,1.037-4.246,1.107L55.739,89.902z    M55.324,52.712c-3.512,0.052-6.76,2.032-8.563,5.17c-3.965,6.878-0.615,17.389,3.029,22.657c1.88,2.713,3.889,5.363,5.949,5.363   l0.096-0.002c1.077-0.043,1.852-0.373,2.832-0.791c1.282-0.547,2.878-1.229,5.306-1.229c2.34,0,3.876,0.664,5.109,1.199   c1.015,0.439,1.747,0.756,2.86,0.756l0.114-0.002c2.236-0.039,3.862-2.168,5.916-5.17c1.247-1.824,2.088-3.641,2.593-4.908   c-2.284-1.428-6.08-4.725-6.136-10.891c-0.048-4.818,2.477-7.991,4.427-9.718c-2.239-2.135-4.979-2.498-6.193-2.547l-0.123-0.009   c-1.896-0.194-3.827,0.587-5.536,1.263c-1.366,0.538-2.546,1.004-3.681,1.004c-1.223,0-2.468-0.494-3.785-1.018   C58.143,53.286,56.699,52.712,55.324,52.712z"/><path d="M63.43,46.06L63.43,46.06c-0.216,0-0.432-0.008-0.646-0.024l-1.617-0.125l-0.212-1.607   c-0.474-3.588,1.28-7.095,3.079-9.182c2.149-2.516,5.641-4.294,8.683-4.416l1.865-0.075l0.203,1.855   c0.35,3.194-0.746,6.601-3.006,9.345C69.616,44.441,66.419,46.06,63.43,46.06z M70.681,35.214c-1.356,0.54-2.708,1.455-3.612,2.513   c-0.842,0.977-1.727,2.475-2.058,4.08c1.342-0.415,2.684-1.316,3.684-2.523C69.698,38.064,70.384,36.638,70.681,35.214z"/></g></svg>