<?xml version="1.0" ?><!DOCTYPE svg  PUBLIC '-//W3C//DTD SVG 1.1//EN'  'http://www.w3.org/Graphics/SVG/1.1/DTD/svg11.dtd'><svg enable-background="new 0 0 128 128" height="128px" id="Layer_1" version="1.1" viewBox="0 0 128 128" width="128px" xml:space="preserve" xmlns="http://www.w3.org/2000/svg" xmlns:xlink="http://www.w3.org/1999/xlink"><g><path d="M64,114.135c-27.642,0-50.129-22.488-50.129-50.129c0-27.64,22.487-50.127,50.129-50.127   c27.643,0,50.131,22.487,50.131,50.127C114.131,91.646,91.643,114.135,64,114.135z M64,17.878   c-25.436,0-46.129,20.692-46.129,46.127c0,25.436,20.693,46.129,46.129,46.129c25.437,0,46.131-20.693,46.131-46.129   C110.131,38.571,89.437,17.878,64,17.878z"/></g><g><g><path d="M51.648,65.9c-7.142,0-12.951-5.81-12.951-12.952s5.81-12.951,12.951-12.951c7.143,0,12.953,5.81,12.953,12.951    S58.791,65.9,51.648,65.9z M51.648,43.998c-4.936,0-8.951,4.016-8.951,8.951s4.016,8.951,8.951,8.951    c4.937,0,8.953-4.016,8.953-8.951S56.585,43.998,51.648,43.998z"/><path d="M54.311,91.221c-5.674,0-10.289-4.615-10.289-10.289c0-5.676,4.615-10.291,10.289-10.291    c5.675,0,10.291,4.615,10.291,10.291C64.602,86.605,59.985,91.221,54.311,91.221z M54.311,74.641    c-3.468,0-6.289,2.822-6.289,6.291c0,3.467,2.821,6.289,6.289,6.289c3.469,0,6.291-2.822,6.291-6.289    C60.602,77.463,57.779,74.641,54.311,74.641z"/><path d="M59.94,76.857c-0.471,0-0.944-0.166-1.325-0.504l-16.26-14.396c-0.826-0.731-0.903-1.996-0.171-2.823    c0.73-0.826,1.995-0.903,2.823-0.171l16.26,14.396c0.826,0.732,0.903,1.996,0.171,2.824C61.044,76.629,60.493,76.857,59.94,76.857    z"/><path d="M58.697,46.574c-0.512,0-1.023-0.195-1.414-0.586c-0.781-0.781-0.781-2.047,0-2.828l5.781-5.781    c0.781-0.781,2.047-0.781,2.828,0s0.781,2.047,0,2.828l-5.781,5.781C59.721,46.378,59.209,46.574,58.697,46.574z"/></g><g><path d="M79.668,71.43c-1.104,0-2-0.896-2-2V54.156c0-1.104,0.896-2,2-2s2,0.896,2,2V69.43    C81.668,70.533,80.772,71.43,79.668,71.43z"/><path d="M87.305,63.792H72.031c-1.104,0-2-0.896-2-2s0.896-2,2-2h15.273c1.104,0,2,0.896,2,2S88.409,63.792,87.305,63.792z"/></g></g></svg>