<?xml version="1.0" ?><!DOCTYPE svg  PUBLIC '-//W3C//DTD SVG 1.1//EN'  'http://www.w3.org/Graphics/SVG/1.1/DTD/svg11.dtd'><svg enable-background="new 0 0 128 128" height="128px" id="Layer_1" version="1.1" viewBox="0 0 128 128" width="128px" xml:space="preserve" xmlns="http://www.w3.org/2000/svg" xmlns:xlink="http://www.w3.org/1999/xlink"><g><path d="M67.09,88.563c-2.261,0-4.31-0.297-6.092-0.881c-1.845-0.611-3.437-1.492-4.738-2.619c-1.36-1.17-2.331-2.467-2.879-3.85   c-0.53-1.328-0.789-3.115-0.789-5.459V61.931h-4.988v-9.834l1.382-0.449c1.513-0.491,2.817-1.197,3.879-2.098   c1.056-0.896,1.915-1.992,2.552-3.253c0.657-1.295,1.121-3.008,1.381-5.094l0.218-1.753h10.181v11.4h10.703v11.08H67.195v9.571   c0,3.461,0.258,4.258,0.288,4.338c0.076,0.203,0.227,0.482,0.687,0.752c0.698,0.42,1.482,0.619,2.412,0.619   c1.9,0,3.771-0.621,5.718-1.898l3.097-2.029v12.088l-1.149,0.539c-2.053,0.967-3.947,1.654-5.632,2.049   C70.92,88.359,69.06,88.563,67.09,88.563z M51.604,57.931h4.988v17.823c0,2.242,0.275,3.402,0.506,3.98   c0.309,0.779,0.905,1.551,1.775,2.301c0.906,0.783,2.041,1.404,3.378,1.848c1.372,0.449,3.003,0.68,4.839,0.68   c1.661,0,3.213-0.168,4.611-0.498c1.108-0.26,2.347-0.68,3.695-1.258v-2.533c-3.224,1.264-6.694,1.303-9.271-0.242   c-1.136-0.668-1.945-1.611-2.39-2.791c-0.254-0.686-0.541-1.945-0.541-5.738V57.931h10.703v-3.08H63.195v-11.4h-2.703   c-0.344,1.795-0.849,3.355-1.508,4.653c-0.877,1.736-2.065,3.25-3.531,4.495c-1.116,0.947-2.406,1.731-3.85,2.34V57.931z"/></g><g><path d="M63.5,114.135c-27.642,0-50.129-22.488-50.129-50.129c0-27.64,22.487-50.127,50.129-50.127s50.129,22.487,50.129,50.127   C113.629,91.646,91.142,114.135,63.5,114.135z M63.5,17.878c-25.436,0-46.129,20.692-46.129,46.127   c0,25.436,20.693,46.129,46.129,46.129s46.129-20.693,46.129-46.129C109.629,38.571,88.936,17.878,63.5,17.878z"/></g></svg>