<?xml version="1.0" ?><!DOCTYPE svg  PUBLIC '-//W3C//DTD SVG 1.1//EN'  'http://www.w3.org/Graphics/SVG/1.1/DTD/svg11.dtd'><svg enable-background="new 0 0 128 128" height="128px" id="Layer_1" version="1.1" viewBox="0 0 128 128" width="128px" xml:space="preserve" xmlns="http://www.w3.org/2000/svg" xmlns:xlink="http://www.w3.org/1999/xlink"><g><path d="M63.999,114.176c-27.642,0-50.129-22.486-50.129-50.128c0-27.642,22.487-50.129,50.129-50.129s50.129,22.487,50.129,50.129   C114.128,91.689,91.641,114.176,63.999,114.176z M63.999,17.918c-25.436,0-46.129,20.693-46.129,46.129   c0,25.435,20.693,46.128,46.129,46.128s46.129-20.693,46.129-46.128C110.128,38.612,89.435,17.918,63.999,17.918z"/></g><g><path d="M65.499,77.574c-2.467,0-4.856-0.803-6.438-1.336c-0.457-0.154-0.889-0.299-1.105-0.348   c-1.077-0.244-1.753-1.314-1.51-2.393s1.316-1.752,2.393-1.51c0.416,0.096,0.894,0.256,1.498,0.459   c1.414,0.477,3.352,1.127,5.163,1.127c8.415,0,13.624-8.109,13.624-15.625c0-8.322-6.834-15.623-14.624-15.623   c-7.885,0-15.624,8.233-15.624,16.623c0,1.104-0.896,2-2,2s-2-0.896-2-2c0-10.601,9.537-20.623,19.624-20.623   c10.096,0,18.624,8.986,18.624,19.623C83.123,68.771,75.217,77.574,65.499,77.574z"/><path d="M52.875,92.457c-0.228,0-0.458-0.039-0.684-0.121c-1.038-0.379-1.573-1.525-1.196-2.564   c0.046-0.125,2.476-6.813,5.256-14.889c-4.195-3.236-5.064-8.084-2.352-13.493c2.332-4.649,8.401-10.8,11.499-9.604   c0.981,0.38,1.938,1.501,1.401,3.405c-3.505,12.442-11.96,35.715-12.045,35.948C54.459,91.951,53.691,92.457,52.875,92.457z    M61.987,57.392c-2.214,1.997-4.983,5.385-5.55,8.815c-0.298,1.807,0.092,3.293,1.219,4.561   C59.207,66.186,60.761,61.446,61.987,57.392z"/></g></svg>